<svg xmlns="http://www.w3.org/2000/svg" xmlns:xlink="http://www.w3.org/1999/xlink" viewBox="0,0,256,256" width="48px" height="48px" fill-rule="nonzero"><g fill="none" fill-rule="nonzero" stroke="none" stroke-width="1" stroke-linecap="butt" stroke-linejoin="miter" stroke-miterlimit="10" stroke-dasharray="" stroke-dashoffset="0" font-family="none" font-weight="none" font-size="none" text-anchor="none" style="mix-blend-mode: normal"><g transform="scale(5.33333,5.33333)"><path d="M24,4c-11.046,0 -20,8.954 -20,20c0,11.046 8.954,20 20,20c11.046,0 20,-8.954 20,-20c0,-11.046 -8.954,-20 -20,-20z" fill="#0023ff"></path><path d="M21.009,20.546v3.498l-0.001,5.258v14.475c0.976,0.147 1.975,0.223 2.992,0.223c0.918,0 1.822,-0.062 2.707,-0.182v-22.649c0,-2.184 0.714,-4.121 2.757,-4.121h3.283v-4.588c-0.577,-0.078 -1.797,-0.248 -4.102,-0.248c-4.814,0 -7.636,2.542 -7.636,8.334z" fill="#ffffff"></path><path d="M32,30h-16v-6h17z" fill="#ffffff"></path><path d="M26.707,30v-6h-5.698v0.044l-0.001,5.258v0.698z" fill="#ffffff"></path></g></g></svg>