<svg xmlns="http://www.w3.org/2000/svg" xmlns:xlink="http://www.w3.org/1999/xlink" viewBox="0,0,256,256" width="48px" height="48px" fill-rule="nonzero"><g fill="#f20437" fill-rule="nonzero" stroke="none" stroke-width="1" stroke-linecap="butt" stroke-linejoin="miter" stroke-miterlimit="10" stroke-dasharray="" stroke-dashoffset="0" font-family="none" font-weight="none" font-size="none" text-anchor="none" style="mix-blend-mode: normal"><g transform="scale(5.33333,5.33333)"><path d="M43.6,20.1h-1.6v-0.1h-18v8h11.3c-1.6,4.7 -6.1,8 -11.3,8c-6.6,0 -12,-5.4 -12,-12c0,-6.6 5.4,-12 12,-12c3.1,0 5.8,1.2 8,3l5.7,-5.7c-3.7,-3.2 -8.4,-5.3 -13.7,-5.3c-11,0 -20,9 -20,20c0,11 9,20 20,20c11,0 20,-9 20,-20c0,-1.3 -0.1,-2.6 -0.4,-3.9z"></path><path d="M43.6,20.1v0l-1.6,-0.1h-18v8h11.3c-0.8,2.2 -2.2,4.2 -4.1,5.6v0l6.2,5.2c-0.4,0.4 6.6,-4.8 6.6,-14.8c0,-1.3 -0.1,-2.6 -0.4,-3.9z"></path><path d="M24,44c5.2,0 9.9,-2 13.4,-5.2l-6.2,-5.2c-2,1.5 -4.5,2.4 -7.2,2.4c-5.2,0 -9.6,-3.3 -11.3,-7.9l-6.5,5c3.3,6.5 10,10.9 17.8,10.9z"></path><path d="M6.3,14.7l6.6,4.8c1.8,-4.4 6.1,-7.5 11.1,-7.5c3.1,0 5.8,1.2 8,3l5.7,-5.7c-3.7,-3.2 -8.4,-5.3 -13.7,-5.3c-7.7,0 -14.3,4.3 -17.7,10.7z"></path><path d="M26.6,35.7l6.8,6c1.5,-0.8 2.9,-1.8 4.1,-2.9l-6.2,-5.2c-1.4,1 -3,1.7 -4.7,2.1z"></path><path d="M9.2,10.6c-1.1,1.2 -2.1,2.6 -2.9,4.1l3.9,2.9l2.6,1.9c0.6,-1.6 1.6,-3 2.8,-4.1z"></path></g></g></svg>