<svg xmlns="http://www.w3.org/2000/svg" xmlns:xlink="http://www.w3.org/1999/xlink" viewBox="0,0,256,256" width="48px" height="48px" fill-rule="nonzero"><g transform=""><g fill="#1a7886" fill-rule="nonzero" stroke="none" stroke-width="1" stroke-linecap="butt" stroke-linejoin="miter" stroke-miterlimit="10" stroke-dasharray="" stroke-dashoffset="0" font-family="none" font-weight="none" font-size="none" text-anchor="none" style="mix-blend-mode: normal"><g transform="scale(5.33333,5.33333)"><path d="M37.538,23.131c-2.378,-1.555 -4.208,-2.561 -6.22,-4.665c-0.366,-0.366 -0.823,-0.823 -1.006,-0.823c-0.183,-0.183 -0.549,0 -0.823,0c-1.006,0 -1.738,-0.457 -2.561,-0.823c0.915,-0.091 1.921,-0.183 2.653,-0.183c3.293,0 5.672,0.823 7.318,1.83c0.549,-0.549 1.372,-1.006 1.83,-1.738c-0.549,-0.64 -0.823,-2.195 -1.006,-3.019c-0.183,-0.64 -0.183,-1.189 -0.366,-1.555c-1.006,-3.659 -2.195,-6.495 -4.208,-9.239c2.012,3.933 3.842,7.958 3.659,13.721c-1.647,-0.549 -6.769,-0.915 -7.318,-0.915c-0.823,0 -1.921,0.274 -2.744,0.274c0.366,-0.549 0.549,-1.372 1.189,-1.555c0.366,-0.183 0.823,0 1.372,0c1.647,0 3.476,-0.183 3.933,0.366c0.366,-0.549 1.189,-0.732 1.372,-1.189c0,-0.183 -0.183,-1.006 -0.366,-1.555c-0.183,-0.549 -0.366,-1.189 -0.549,-1.555c-0.64,-2.744 -1.921,-5.763 -2.927,-7.958l-0.367,-0.55c1.006,3.385 1.83,6.678 1.83,10.977c-1.83,0 -2.561,0 -4.574,0c-0.64,0.549 -1.281,1.464 -1.83,1.83c0.183,-0.823 -0.457,-1.372 -0.915,-1.738c0.183,0.366 0.64,1.372 0.274,1.921c-0.366,0 -0.183,-0.549 -0.549,-0.549c-0.183,0.183 -0.457,0.274 -0.64,0.274v0v0c-0.274,0 -0.457,0 -0.64,-0.274c-0.366,0 -0.183,0.549 -0.549,0.549c-0.366,-0.549 0.091,-1.555 0.274,-1.921c-0.549,0.366 -1.098,0.915 -0.915,1.738c-0.549,-0.366 -1.098,-1.281 -1.83,-1.83c-2.012,0 -2.744,0 -4.574,0c0,-4.299 0.823,-7.593 1.83,-10.977l-0.366,0.549c-1.006,2.195 -2.195,5.306 -2.927,7.958c-0.183,0.366 -0.366,1.006 -0.549,1.555c-0.183,0.549 -0.366,1.372 -0.366,1.555c0.183,0.549 1.006,0.732 1.372,1.189c0.366,-0.549 2.195,-0.366 3.933,-0.366c0.549,0 1.006,-0.183 1.372,0c0.64,0.183 0.823,1.006 1.189,1.555c-0.823,0 -1.921,-0.274 -2.744,-0.274c-0.549,0 -5.672,0.366 -7.318,0.915c-0.183,-5.763 1.647,-9.788 3.659,-13.721c-2.012,2.744 -3.202,5.58 -4.208,9.331c-0.183,0.366 -0.183,0.823 -0.366,1.555c-0.183,0.823 -0.457,2.378 -1.006,3.019c0.549,0.64 1.372,1.189 1.83,1.738c1.647,-1.006 4.025,-1.83 7.318,-1.83c0.64,0 1.647,0 2.653,0.183c-0.823,0.366 -1.555,0.823 -2.561,0.823c-0.366,0 -0.64,-0.183 -0.823,0c-0.183,0 -0.64,0.549 -1.006,0.823c-2.012,2.012 -3.842,3.11 -6.22,4.665c-0.64,0.549 -1.189,1.006 -2.012,0.366c0,6.769 1.555,11.8 3.751,16.374c0.274,0.366 0.823,1.372 0.823,1.372c-1.647,-3.933 -2.744,-8.507 -2.744,-13.996c0,-0.549 -0.183,-1.372 0,-1.738c0.183,-0.64 1.189,-1.555 1.83,-2.012c1.83,-1.738 3.202,-2.378 5.214,-3.933c0.366,-0.366 0.64,-0.64 1.006,-0.823c0.366,-0.183 2.012,-0.457 2.744,-0.823c-0.823,0.823 -1.83,2.378 -2.836,3.202c-0.183,0.183 -0.366,0 -0.64,0c0,8.233 0.366,15.185 2.561,20.948c0.549,1.372 1.189,2.744 2.012,3.751c-3.019,-5.489 -2.744,-14.362 -2.744,-22.869c-0.64,-0.549 -0.183,-0.823 0.366,-1.464c0.64,-0.64 1.464,-2.378 2.378,-2.744c0,0.366 -0.183,0.64 -0.366,0.915c-0.183,0.274 -0.549,0.732 -0.549,0.915c-0.183,0.64 0.183,2.012 0.366,2.744c0.549,2.378 1.189,5.123 2.012,6.952c0.366,0 0.183,-0.732 0.366,-0.915v0v0c0.183,0.183 0,0.915 0.366,0.915c0.823,-1.83 1.555,-4.574 2.012,-6.952c0.183,-0.64 0.549,-2.012 0.366,-2.744c0,-0.183 -0.366,-0.549 -0.549,-0.823c-0.183,-0.274 -0.366,-0.64 -0.366,-0.915c0.823,0.366 1.647,2.012 2.378,2.744c0.549,0.64 1.006,1.006 0.366,1.464c0,8.507 0.274,17.38 -2.744,22.869c0.823,-1.006 1.555,-2.378 2.012,-3.751c2.195,-5.854 2.561,-12.807 2.561,-21.04c-0.366,0 -0.549,0.183 -0.64,0c-1.006,-0.823 -2.012,-2.378 -2.836,-3.202c0.732,0.366 2.378,0.64 2.744,0.823c0.366,0.183 0.64,0.549 1.006,0.823c2.012,1.555 3.293,2.287 5.214,3.933c0.64,0.549 1.647,1.372 1.83,2.012c0.183,0.366 0,1.189 0,1.738c0,5.489 -1.006,10.062 -2.744,13.996c0,0 0.549,-1.006 0.823,-1.555c2.195,-4.574 3.751,-9.605 3.751,-16.374c-0.821,0.732 -1.37,0.183 -2.011,-0.274z"></path></g></g></g></svg>